<svg xmlns="http://www.w3.org/2000/svg" version="1.1" xmlns:xlink="http://www.w3.org/1999/xlink" xmlns:svgjs="http://svgjs.dev/svgjs" width="1440" height="560" preserveAspectRatio="none" viewBox="0 0 1440 560"><g mask="url(&quot;#SvgjsMask2293&quot;)" fill="none"><path d="M-65.09 398.33L-65.09 398.33" stroke="rgba(250, 208, 44, 1)" stroke-width="1.5"></path><path d="M-65.09 398.33L-38.94 522.64" stroke="rgba(250, 208, 44, 1)" stroke-width="1.5"></path><path d="M-65.09 398.33L109.62 346.54" stroke="rgba(250, 208, 44, 1)" stroke-width="1.5"></path><path d="M-65.09 398.33L78.67 523.74" stroke="rgba(250, 208, 44, 1)" stroke-width="1.5"></path><path d="M-65.09 398.33L-43.27 642.5" stroke="rgba(250, 208, 44, 1)" stroke-width="1.5"></path><path d="M-38.94 522.64L-38.94 522.64" stroke="rgba(250, 208, 44, 1)" stroke-width="1.5"></path><path d="M-38.94 522.64L78.67 523.74" stroke="rgba(250, 208, 44, 1)" stroke-width="1.5"></path><path d="M-38.94 522.64L-43.27 642.5" stroke="rgba(250, 208, 44, 1)" stroke-width="1.5"></path><path d="M-38.94 522.64L103.66 682.35" stroke="rgba(250, 208, 44, 1)" stroke-width="1.5"></path><path d="M-38.94 522.64L109.62 346.54" stroke="rgba(250, 208, 44, 1)" stroke-width="1.5"></path><path d="M-38.94 522.64L241.68 527.66" stroke="rgba(250, 208, 44, 1)" stroke-width="1.5"></path><path d="M-43.27 642.5L-43.27 642.5" stroke="rgba(250, 208, 44, 1)" stroke-width="1.5"></path><path d="M-43.27 642.5L103.66 682.35" stroke="rgba(250, 208, 44, 1)" stroke-width="1.5"></path><path d="M-43.27 642.5L78.67 523.74" stroke="rgba(250, 208, 44, 1)" stroke-width="1.5"></path><path d="M-43.27 642.5L211.18 694.19" stroke="rgba(250, 208, 44, 1)" stroke-width="1.5"></path><path d="M109.62 346.54L109.62 346.54" stroke="rgba(250, 208, 44, 1)" stroke-width="1.5"></path><path d="M109.62 346.54L254.1 381.12" stroke="rgba(250, 208, 44, 1)" stroke-width="1.5"></path><path d="M109.62 346.54L78.67 523.74" stroke="rgba(250, 208, 44, 1)" stroke-width="1.5"></path><path d="M109.62 346.54L241.68 527.66" stroke="rgba(250, 208, 44, 1)" stroke-width="1.5"></path><path d="M109.62 346.54L389.11 368.42" stroke="rgba(250, 208, 44, 1)" stroke-width="1.5"></path><path d="M78.67 523.74L78.67 523.74" stroke="rgba(250, 208, 44, 1)" stroke-width="1.5"></path><path d="M78.67 523.74L103.66 682.35" stroke="rgba(250, 208, 44, 1)" stroke-width="1.5"></path><path d="M103.66 682.35L103.66 682.35" stroke="rgba(250, 208, 44, 1)" stroke-width="1.5"></path><path d="M103.66 682.35L211.18 694.19" stroke="rgba(250, 208, 44, 1)" stroke-width="1.5"></path><path d="M103.66 682.35L241.68 527.66" stroke="rgba(250, 208, 44, 1)" stroke-width="1.5"></path><path d="M254.1 381.12L254.1 381.12" stroke="rgba(250, 208, 44, 1)" stroke-width="1.5"></path><path d="M254.1 381.12L389.11 368.42" stroke="rgba(250, 208, 44, 1)" stroke-width="1.5"></path><path d="M254.1 381.12L241.68 527.66" stroke="rgba(250, 208, 44, 1)" stroke-width="1.5"></path><path d="M254.1 381.12L78.67 523.74" stroke="rgba(250, 208, 44, 1)" stroke-width="1.5"></path><path d="M254.1 381.12L408.78 558.75" stroke="rgba(250, 208, 44, 1)" stroke-width="1.5"></path><path d="M241.68 527.66L241.68 527.66" stroke="rgba(250, 208, 44, 1)" stroke-width="1.5"></path><path d="M241.68 527.66L78.67 523.74" stroke="rgba(250, 208, 44, 1)" stroke-width="1.5"></path><path d="M241.68 527.66L211.18 694.19" stroke="rgba(250, 208, 44, 1)" stroke-width="1.5"></path><path d="M241.68 527.66L408.78 558.75" stroke="rgba(250, 208, 44, 1)" stroke-width="1.5"></path><path d="M211.18 694.19L211.18 694.19" stroke="rgba(250, 208, 44, 1)" stroke-width="1.5"></path><path d="M211.18 694.19L353.65 702.44" stroke="rgba(250, 208, 44, 1)" stroke-width="1.5"></path><path d="M389.11 368.42L389.11 368.42" stroke="rgba(250, 208, 44, 1)" stroke-width="1.5"></path><path d="M389.11 368.42L499.32 355.98" stroke="rgba(250, 208, 44, 1)" stroke-width="1.5"></path><path d="M389.11 368.42L500.61 516.97" stroke="rgba(250, 208, 44, 1)" stroke-width="1.5"></path><path d="M389.11 368.42L408.78 558.75" stroke="rgba(250, 208, 44, 1)" stroke-width="1.5"></path><path d="M389.11 368.42L241.68 527.66" stroke="rgba(250, 208, 44, 1)" stroke-width="1.5"></path><path d="M408.78 558.75L408.78 558.75" stroke="rgba(250, 208, 44, 1)" stroke-width="1.5"></path><path d="M408.78 558.75L500.61 516.97" stroke="rgba(250, 208, 44, 1)" stroke-width="1.5"></path><path d="M408.78 558.75L497.15 659.26" stroke="rgba(250, 208, 44, 1)" stroke-width="1.5"></path><path d="M408.78 558.75L353.65 702.44" stroke="rgba(250, 208, 44, 1)" stroke-width="1.5"></path><path d="M408.78 558.75L499.32 355.98" stroke="rgba(250, 208, 44, 1)" stroke-width="1.5"></path><path d="M353.65 702.44L353.65 702.44" stroke="rgba(250, 208, 44, 1)" stroke-width="1.5"></path><path d="M353.65 702.44L497.15 659.26" stroke="rgba(250, 208, 44, 1)" stroke-width="1.5"></path><path d="M499.32 355.98L499.32 355.98" stroke="rgba(250, 208, 44, 1)" stroke-width="1.5"></path><path d="M499.32 355.98L500.61 516.97" stroke="rgba(250, 208, 44, 1)" stroke-width="1.5"></path><path d="M499.32 355.98L688.03 374.94" stroke="rgba(250, 208, 44, 1)" stroke-width="1.5"></path><path d="M499.32 355.98L695.76 262.29" stroke="rgba(250, 208, 44, 1)" stroke-width="1.5"></path><path d="M500.61 516.97L500.61 516.97" stroke="rgba(250, 208, 44, 1)" stroke-width="1.5"></path><path d="M500.61 516.97L497.15 659.26" stroke="rgba(250, 208, 44, 1)" stroke-width="1.5"></path><path d="M500.61 516.97L688.03 374.94" stroke="rgba(250, 208, 44, 1)" stroke-width="1.5"></path><path d="M500.61 516.97L353.65 702.44" stroke="rgba(250, 208, 44, 1)" stroke-width="1.5"></path><path d="M497.15 659.26L497.15 659.26" stroke="rgba(250, 208, 44, 1)" stroke-width="1.5"></path><path d="M695.76 262.29L695.76 262.29" stroke="rgba(250, 208, 44, 1)" stroke-width="1.5"></path><path d="M695.76 262.29L688.03 374.94" stroke="rgba(250, 208, 44, 1)" stroke-width="1.5"></path><path d="M695.76 262.29L834.08 229.59" stroke="rgba(250, 208, 44, 1)" stroke-width="1.5"></path><path d="M695.76 262.29L947.1 231.07" stroke="rgba(250, 208, 44, 1)" stroke-width="1.5"></path><path d="M695.76 262.29L500.61 516.97" stroke="rgba(250, 208, 44, 1)" stroke-width="1.5"></path><path d="M695.76 262.29L832.96 553.02" stroke="rgba(250, 208, 44, 1)" stroke-width="1.5"></path><path d="M688.03 374.94L688.03 374.94" stroke="rgba(250, 208, 44, 1)" stroke-width="1.5"></path><path d="M647.9 702.79L647.9 702.79" stroke="rgba(250, 208, 44, 1)" stroke-width="1.5"></path><path d="M647.9 702.79L497.15 659.26" stroke="rgba(250, 208, 44, 1)" stroke-width="1.5"></path><path d="M834.08 229.59L834.08 229.59" stroke="rgba(250, 208, 44, 1)" stroke-width="1.5"></path><path d="M834.08 229.59L947.1 231.07" stroke="rgba(250, 208, 44, 1)" stroke-width="1.5"></path><path d="M834.08 229.59L688.03 374.94" stroke="rgba(250, 208, 44, 1)" stroke-width="1.5"></path><path d="M834.08 229.59L962.11 51.74" stroke="rgba(250, 208, 44, 1)" stroke-width="1.5"></path><path d="M834.08 229.59L1005.83 406.71" stroke="rgba(250, 208, 44, 1)" stroke-width="1.5"></path><path d="M834.08 229.59L1115.16 206.12" stroke="rgba(250, 208, 44, 1)" stroke-width="1.5"></path><path d="M832.96 553.02L832.96 553.02" stroke="rgba(250, 208, 44, 1)" stroke-width="1.5"></path><path d="M832.96 553.02L856.49 670.84" stroke="rgba(250, 208, 44, 1)" stroke-width="1.5"></path><path d="M832.96 553.02L989.66 526.99" stroke="rgba(250, 208, 44, 1)" stroke-width="1.5"></path><path d="M856.49 670.84L856.49 670.84" stroke="rgba(250, 208, 44, 1)" stroke-width="1.5"></path><path d="M987.31 -64.94L987.31 -64.94" stroke="rgba(250, 208, 44, 1)" stroke-width="1.5"></path><path d="M987.31 -64.94L962.11 51.74" stroke="rgba(250, 208, 44, 1)" stroke-width="1.5"></path><path d="M987.31 -64.94L1151.37 -92.34" stroke="rgba(250, 208, 44, 1)" stroke-width="1.5"></path><path d="M987.31 -64.94L1148.93 49.15" stroke="rgba(250, 208, 44, 1)" stroke-width="1.5"></path><path d="M987.31 -64.94L1245.53 -41.01" stroke="rgba(250, 208, 44, 1)" stroke-width="1.5"></path><path d="M987.31 -64.94L947.1 231.07" stroke="rgba(250, 208, 44, 1)" stroke-width="1.5"></path><path d="M962.11 51.74L962.11 51.74" stroke="rgba(250, 208, 44, 1)" stroke-width="1.5"></path><path d="M962.11 51.74L947.1 231.07" stroke="rgba(250, 208, 44, 1)" stroke-width="1.5"></path><path d="M962.11 51.74L1148.93 49.15" stroke="rgba(250, 208, 44, 1)" stroke-width="1.5"></path><path d="M962.11 51.74L1115.16 206.12" stroke="rgba(250, 208, 44, 1)" stroke-width="1.5"></path><path d="M947.1 231.07L947.1 231.07" stroke="rgba(250, 208, 44, 1)" stroke-width="1.5"></path><path d="M947.1 231.07L1115.16 206.12" stroke="rgba(250, 208, 44, 1)" stroke-width="1.5"></path><path d="M1005.83 406.71L1005.83 406.71" stroke="rgba(250, 208, 44, 1)" stroke-width="1.5"></path><path d="M1005.83 406.71L1094.1 394.88" stroke="rgba(250, 208, 44, 1)" stroke-width="1.5"></path><path d="M1005.83 406.71L989.66 526.99" stroke="rgba(250, 208, 44, 1)" stroke-width="1.5"></path><path d="M1005.83 406.71L1097.44 535.65" stroke="rgba(250, 208, 44, 1)" stroke-width="1.5"></path><path d="M1005.83 406.71L947.1 231.07" stroke="rgba(250, 208, 44, 1)" stroke-width="1.5"></path><path d="M989.66 526.99L989.66 526.99" stroke="rgba(250, 208, 44, 1)" stroke-width="1.5"></path><path d="M989.66 526.99L1097.44 535.65" stroke="rgba(250, 208, 44, 1)" stroke-width="1.5"></path><path d="M989.66 526.99L975.7 639.42" stroke="rgba(250, 208, 44, 1)" stroke-width="1.5"></path><path d="M975.7 639.42L975.7 639.42" stroke="rgba(250, 208, 44, 1)" stroke-width="1.5"></path><path d="M975.7 639.42L856.49 670.84" stroke="rgba(250, 208, 44, 1)" stroke-width="1.5"></path><path d="M975.7 639.42L1097.44 535.65" stroke="rgba(250, 208, 44, 1)" stroke-width="1.5"></path><path d="M975.7 639.42L832.96 553.02" stroke="rgba(250, 208, 44, 1)" stroke-width="1.5"></path><path d="M1151.37 -92.34L1151.37 -92.34" stroke="rgba(250, 208, 44, 1)" stroke-width="1.5"></path><path d="M1151.37 -92.34L1245.53 -41.01" stroke="rgba(250, 208, 44, 1)" stroke-width="1.5"></path><path d="M1151.37 -92.34L1148.93 49.15" stroke="rgba(250, 208, 44, 1)" stroke-width="1.5"></path><path d="M1148.93 49.15L1148.93 49.15" stroke="rgba(250, 208, 44, 1)" stroke-width="1.5"></path><path d="M1148.93 49.15L1264.36 53.3" stroke="rgba(250, 208, 44, 1)" stroke-width="1.5"></path><path d="M1148.93 49.15L1245.53 -41.01" stroke="rgba(250, 208, 44, 1)" stroke-width="1.5"></path><path d="M1148.93 49.15L1115.16 206.12" stroke="rgba(250, 208, 44, 1)" stroke-width="1.5"></path><path d="M1115.16 206.12L1115.16 206.12" stroke="rgba(250, 208, 44, 1)" stroke-width="1.5"></path><path d="M1115.16 206.12L1255.03 233.5" stroke="rgba(250, 208, 44, 1)" stroke-width="1.5"></path><path d="M1094.1 394.88L1094.1 394.88" stroke="rgba(250, 208, 44, 1)" stroke-width="1.5"></path><path d="M1094.1 394.88L1097.44 535.65" stroke="rgba(250, 208, 44, 1)" stroke-width="1.5"></path><path d="M1094.1 394.88L989.66 526.99" stroke="rgba(250, 208, 44, 1)" stroke-width="1.5"></path><path d="M1097.44 535.65L1097.44 535.65" stroke="rgba(250, 208, 44, 1)" stroke-width="1.5"></path><path d="M1097.44 535.65L1152.43 671.12" stroke="rgba(250, 208, 44, 1)" stroke-width="1.5"></path><path d="M1097.44 535.65L1279.21 518.74" stroke="rgba(250, 208, 44, 1)" stroke-width="1.5"></path><path d="M1152.43 671.12L1152.43 671.12" stroke="rgba(250, 208, 44, 1)" stroke-width="1.5"></path><path d="M1152.43 671.12L1285.57 644.03" stroke="rgba(250, 208, 44, 1)" stroke-width="1.5"></path><path d="M1152.43 671.12L975.7 639.42" stroke="rgba(250, 208, 44, 1)" stroke-width="1.5"></path><path d="M1152.43 671.12L1279.21 518.74" stroke="rgba(250, 208, 44, 1)" stroke-width="1.5"></path><path d="M1152.43 671.12L989.66 526.99" stroke="rgba(250, 208, 44, 1)" stroke-width="1.5"></path><path d="M1245.53 -41.01L1245.53 -41.01" stroke="rgba(250, 208, 44, 1)" stroke-width="1.5"></path><path d="M1245.53 -41.01L1264.36 53.3" stroke="rgba(250, 208, 44, 1)" stroke-width="1.5"></path><path d="M1264.36 53.3L1264.36 53.3" stroke="rgba(250, 208, 44, 1)" stroke-width="1.5"></path><path d="M1255.03 233.5L1255.03 233.5" stroke="rgba(250, 208, 44, 1)" stroke-width="1.5"></path><path d="M1255.03 233.5L1286.59 353.76" stroke="rgba(250, 208, 44, 1)" stroke-width="1.5"></path><path d="M1255.03 233.5L1420.04 246.25" stroke="rgba(250, 208, 44, 1)" stroke-width="1.5"></path><path d="M1255.03 233.5L1264.36 53.3" stroke="rgba(250, 208, 44, 1)" stroke-width="1.5"></path><path d="M1255.03 233.5L1420.86 361.18" stroke="rgba(250, 208, 44, 1)" stroke-width="1.5"></path><path d="M1255.03 233.5L1148.93 49.15" stroke="rgba(250, 208, 44, 1)" stroke-width="1.5"></path><path d="M1286.59 353.76L1286.59 353.76" stroke="rgba(250, 208, 44, 1)" stroke-width="1.5"></path><path d="M1286.59 353.76L1420.86 361.18" stroke="rgba(250, 208, 44, 1)" stroke-width="1.5"></path><path d="M1286.59 353.76L1279.21 518.74" stroke="rgba(250, 208, 44, 1)" stroke-width="1.5"></path><path d="M1286.59 353.76L1420.04 246.25" stroke="rgba(250, 208, 44, 1)" stroke-width="1.5"></path><path d="M1279.21 518.74L1279.21 518.74" stroke="rgba(250, 208, 44, 1)" stroke-width="1.5"></path><path d="M1279.21 518.74L1285.57 644.03" stroke="rgba(250, 208, 44, 1)" stroke-width="1.5"></path><path d="M1279.21 518.74L1420.86 361.18" stroke="rgba(250, 208, 44, 1)" stroke-width="1.5"></path><path d="M1279.21 518.74L1094.1 394.88" stroke="rgba(250, 208, 44, 1)" stroke-width="1.5"></path><path d="M1285.57 644.03L1285.57 644.03" stroke="rgba(250, 208, 44, 1)" stroke-width="1.5"></path><path d="M1438.52 -40.48L1438.52 -40.48" stroke="rgba(250, 208, 44, 1)" stroke-width="1.5"></path><path d="M1438.52 -40.48L1428.83 37.78" stroke="rgba(250, 208, 44, 1)" stroke-width="1.5"></path><path d="M1438.52 -40.48L1540.31 -94.23" stroke="rgba(250, 208, 44, 1)" stroke-width="1.5"></path><path d="M1438.52 -40.48L1569.36 85.76" stroke="rgba(250, 208, 44, 1)" stroke-width="1.5"></path><path d="M1428.83 37.78L1428.83 37.78" stroke="rgba(250, 208, 44, 1)" stroke-width="1.5"></path><path d="M1428.83 37.78L1569.36 85.76" stroke="rgba(250, 208, 44, 1)" stroke-width="1.5"></path><path d="M1428.83 37.78L1264.36 53.3" stroke="rgba(250, 208, 44, 1)" stroke-width="1.5"></path><path d="M1428.83 37.78L1540.31 -94.23" stroke="rgba(250, 208, 44, 1)" stroke-width="1.5"></path><path d="M1420.04 246.25L1420.04 246.25" stroke="rgba(250, 208, 44, 1)" stroke-width="1.5"></path><path d="M1420.04 246.25L1420.86 361.18" stroke="rgba(250, 208, 44, 1)" stroke-width="1.5"></path><path d="M1420.04 246.25L1562.66 211.44" stroke="rgba(250, 208, 44, 1)" stroke-width="1.5"></path><path d="M1420.04 246.25L1543.54 371.34" stroke="rgba(250, 208, 44, 1)" stroke-width="1.5"></path><path d="M1420.86 361.18L1420.86 361.18" stroke="rgba(250, 208, 44, 1)" stroke-width="1.5"></path><path d="M1420.86 361.18L1543.54 371.34" stroke="rgba(250, 208, 44, 1)" stroke-width="1.5"></path><path d="M1420.86 361.18L1562.66 211.44" stroke="rgba(250, 208, 44, 1)" stroke-width="1.5"></path><path d="M1435.57 711.18L1435.57 711.18" stroke="rgba(250, 208, 44, 1)" stroke-width="1.5"></path><path d="M1435.57 711.18L1285.57 644.03" stroke="rgba(250, 208, 44, 1)" stroke-width="1.5"></path><path d="M1435.57 711.18L1608.97 707.31" stroke="rgba(250, 208, 44, 1)" stroke-width="1.5"></path><path d="M1435.57 711.18L1598.66 524.67" stroke="rgba(250, 208, 44, 1)" stroke-width="1.5"></path><path d="M1435.57 711.18L1279.21 518.74" stroke="rgba(250, 208, 44, 1)" stroke-width="1.5"></path><path d="M1435.57 711.18L1152.43 671.12" stroke="rgba(250, 208, 44, 1)" stroke-width="1.5"></path><path d="M1435.57 711.18L1420.86 361.18" stroke="rgba(250, 208, 44, 1)" stroke-width="1.5"></path><path d="M1540.31 -94.23L1540.31 -94.23" stroke="rgba(250, 208, 44, 1)" stroke-width="1.5"></path><path d="M1540.31 -94.23L1569.36 85.76" stroke="rgba(250, 208, 44, 1)" stroke-width="1.5"></path><path d="M1540.31 -94.23L1245.53 -41.01" stroke="rgba(250, 208, 44, 1)" stroke-width="1.5"></path><path d="M1540.31 -94.23L1562.66 211.44" stroke="rgba(250, 208, 44, 1)" stroke-width="1.5"></path><path d="M1540.31 -94.23L1264.36 53.3" stroke="rgba(250, 208, 44, 1)" stroke-width="1.5"></path><path d="M1569.36 85.76L1569.36 85.76" stroke="rgba(250, 208, 44, 1)" stroke-width="1.5"></path><path d="M1569.36 85.76L1562.66 211.44" stroke="rgba(250, 208, 44, 1)" stroke-width="1.5"></path><path d="M1562.66 211.44L1562.66 211.44" stroke="rgba(250, 208, 44, 1)" stroke-width="1.5"></path><path d="M1562.66 211.44L1543.54 371.34" stroke="rgba(250, 208, 44, 1)" stroke-width="1.5"></path><path d="M1543.54 371.34L1543.54 371.34" stroke="rgba(250, 208, 44, 1)" stroke-width="1.5"></path><path d="M1543.54 371.34L1598.66 524.67" stroke="rgba(250, 208, 44, 1)" stroke-width="1.5"></path><path d="M1543.54 371.34L1286.59 353.76" stroke="rgba(250, 208, 44, 1)" stroke-width="1.5"></path><path d="M1598.66 524.67L1598.66 524.67" stroke="rgba(250, 208, 44, 1)" stroke-width="1.5"></path><path d="M1598.66 524.67L1608.97 707.31" stroke="rgba(250, 208, 44, 1)" stroke-width="1.5"></path><path d="M1598.66 524.67L1420.86 361.18" stroke="rgba(250, 208, 44, 1)" stroke-width="1.5"></path><path d="M1598.66 524.67L1562.66 211.44" stroke="rgba(250, 208, 44, 1)" stroke-width="1.5"></path><path d="M1608.97 707.31L1608.97 707.31" stroke="rgba(250, 208, 44, 1)" stroke-width="1.5"></path><path d="M1608.97 707.31L1285.57 644.03" stroke="rgba(250, 208, 44, 1)" stroke-width="1.5"></path><path d="M1608.97 707.31L1543.54 371.34" stroke="rgba(250, 208, 44, 1)" stroke-width="1.5"></path><circle r="5" cx="-65.09" cy="398.33" fill="rgba(250, 208, 44, 1)"></circle><circle r="5" cx="-38.94" cy="522.64" fill="rgba(250, 208, 44, 1)"></circle><circle r="5" cx="-43.27" cy="642.5" fill="rgba(250, 208, 44, 1)"></circle><circle r="5" cx="109.62" cy="346.54" fill="rgba(250, 208, 44, 1)"></circle><circle r="5" cx="78.67" cy="523.74" fill="rgba(250, 208, 44, 1)"></circle><circle r="5" cx="103.66" cy="682.35" fill="rgba(250, 208, 44, 1)"></circle><circle r="5" cx="254.1" cy="381.12" fill="rgba(250, 208, 44, 1)"></circle><circle r="5" cx="241.68" cy="527.66" fill="rgba(250, 208, 44, 1)"></circle><circle r="5" cx="211.18" cy="694.19" fill="rgba(250, 208, 44, 1)"></circle><circle r="5" cx="389.11" cy="368.42" fill="rgba(250, 208, 44, 1)"></circle><circle r="5" cx="408.78" cy="558.75" fill="rgba(250, 208, 44, 1)"></circle><circle r="5" cx="353.65" cy="702.44" fill="rgba(250, 208, 44, 1)"></circle><circle r="5" cx="499.32" cy="355.98" fill="rgba(250, 208, 44, 1)"></circle><circle r="5" cx="500.61" cy="516.97" fill="rgba(250, 208, 44, 1)"></circle><circle r="5" cx="497.15" cy="659.26" fill="rgba(250, 208, 44, 1)"></circle><circle r="5" cx="695.76" cy="262.29" fill="rgba(250, 208, 44, 1)"></circle><circle r="5" cx="688.03" cy="374.94" fill="rgba(250, 208, 44, 1)"></circle><circle r="5" cx="647.9" cy="702.79" fill="rgba(250, 208, 44, 1)"></circle><circle r="5" cx="834.08" cy="229.59" fill="rgba(250, 208, 44, 1)"></circle><circle r="5" cx="832.96" cy="553.02" fill="rgba(250, 208, 44, 1)"></circle><circle r="5" cx="856.49" cy="670.84" fill="rgba(250, 208, 44, 1)"></circle><circle r="5" cx="987.31" cy="-64.94" fill="rgba(250, 208, 44, 1)"></circle><circle r="5" cx="962.11" cy="51.74" fill="rgba(250, 208, 44, 1)"></circle><circle r="5" cx="947.1" cy="231.07" fill="rgba(250, 208, 44, 1)"></circle><circle r="5" cx="1005.83" cy="406.71" fill="rgba(250, 208, 44, 1)"></circle><circle r="5" cx="989.66" cy="526.99" fill="rgba(250, 208, 44, 1)"></circle><circle r="5" cx="975.7" cy="639.42" fill="rgba(250, 208, 44, 1)"></circle><circle r="5" cx="1151.37" cy="-92.34" fill="rgba(250, 208, 44, 1)"></circle><circle r="5" cx="1148.93" cy="49.15" fill="rgba(250, 208, 44, 1)"></circle><circle r="5" cx="1115.16" cy="206.12" fill="rgba(250, 208, 44, 1)"></circle><circle r="5" cx="1094.1" cy="394.88" fill="rgba(250, 208, 44, 1)"></circle><circle r="5" cx="1097.44" cy="535.65" fill="rgba(250, 208, 44, 1)"></circle><circle r="5" cx="1152.43" cy="671.12" fill="rgba(250, 208, 44, 1)"></circle><circle r="5" cx="1245.53" cy="-41.01" fill="rgba(250, 208, 44, 1)"></circle><circle r="5" cx="1264.36" cy="53.3" fill="rgba(250, 208, 44, 1)"></circle><circle r="5" cx="1255.03" cy="233.5" fill="rgba(250, 208, 44, 1)"></circle><circle r="5" cx="1286.59" cy="353.76" fill="rgba(250, 208, 44, 1)"></circle><circle r="5" cx="1279.21" cy="518.74" fill="rgba(250, 208, 44, 1)"></circle><circle r="5" cx="1285.57" cy="644.03" fill="rgba(250, 208, 44, 1)"></circle><circle r="5" cx="1438.52" cy="-40.48" fill="rgba(250, 208, 44, 1)"></circle><circle r="5" cx="1428.83" cy="37.78" fill="rgba(250, 208, 44, 1)"></circle><circle r="5" cx="1420.04" cy="246.25" fill="rgba(250, 208, 44, 1)"></circle><circle r="5" cx="1420.86" cy="361.18" fill="rgba(250, 208, 44, 1)"></circle><circle r="5" cx="1435.57" cy="711.18" fill="rgba(250, 208, 44, 1)"></circle><circle r="5" cx="1540.31" cy="-94.23" fill="rgba(250, 208, 44, 1)"></circle><circle r="5" cx="1569.36" cy="85.76" fill="rgba(250, 208, 44, 1)"></circle><circle r="5" cx="1562.66" cy="211.44" fill="rgba(250, 208, 44, 1)"></circle><circle r="5" cx="1543.54" cy="371.34" fill="rgba(250, 208, 44, 1)"></circle><circle r="5" cx="1598.66" cy="524.67" fill="rgba(250, 208, 44, 1)"></circle><circle r="5" cx="1608.97" cy="707.31" fill="rgba(250, 208, 44, 1)"></circle><path d="M87.35 711.38L87.35 711.38" stroke="hsl(60, 100%, 65%)" stroke-width="1.5"></path><path d="M87.35 711.38L243.37 676.79" stroke="hsl(60, 100%, 65%)" stroke-width="1.5"></path><path d="M87.35 711.38L107.2 544.8" stroke="hsl(60, 100%, 65%)" stroke-width="1.5"></path><path d="M87.35 711.38L-81.71 707.71" stroke="hsl(60, 100%, 65%)" stroke-width="1.5"></path><path d="M87.35 711.38L255.52 549.47" stroke="hsl(60, 100%, 65%)" stroke-width="1.5"></path><path d="M859.21 677.23L859.21 677.23" stroke="hsl(60, 100%, 65%)" stroke-width="1.5"></path><path d="M859.21 677.23L960.86 695.93" stroke="hsl(60, 100%, 65%)" stroke-width="1.5"></path><path d="M859.21 677.23L703.48 654.13" stroke="hsl(60, 100%, 65%)" stroke-width="1.5"></path><path d="M859.21 677.23L790.37 518.91" stroke="hsl(60, 100%, 65%)" stroke-width="1.5"></path><path d="M859.21 677.23L940.76 494.35" stroke="hsl(60, 100%, 65%)" stroke-width="1.5"></path><path d="M960.86 695.93L960.86 695.93" stroke="hsl(60, 100%, 65%)" stroke-width="1.5"></path><path d="M960.86 695.93L1146.17 667.66" stroke="hsl(60, 100%, 65%)" stroke-width="1.5"></path><path d="M960.86 695.93L940.76 494.35" stroke="hsl(60, 100%, 65%)" stroke-width="1.5"></path><path d="M1091.36 521.79L1091.36 521.79" stroke="hsl(60, 100%, 65%)" stroke-width="1.5"></path><path d="M1091.36 521.79L1100.9 405.29" stroke="hsl(60, 100%, 65%)" stroke-width="1.5"></path><path d="M1091.36 521.79L992.11 409.67" stroke="hsl(60, 100%, 65%)" stroke-width="1.5"></path><path d="M1091.36 521.79L940.76 494.35" stroke="hsl(60, 100%, 65%)" stroke-width="1.5"></path><path d="M1091.36 521.79L1146.17 667.66" stroke="hsl(60, 100%, 65%)" stroke-width="1.5"></path><path d="M1254.76 536.48L1254.76 536.48" stroke="hsl(60, 100%, 65%)" stroke-width="1.5"></path><path d="M1254.76 536.48L1272.86 642.04" stroke="hsl(60, 100%, 65%)" stroke-width="1.5"></path><path d="M1391.38 546.4L1391.38 546.4" stroke="hsl(60, 100%, 65%)" stroke-width="1.5"></path><path d="M1391.38 546.4L1434.84 645.66" stroke="hsl(60, 100%, 65%)" stroke-width="1.5"></path><path d="M1391.38 546.4L1254.76 536.48" stroke="hsl(60, 100%, 65%)" stroke-width="1.5"></path><path d="M1391.38 546.4L1272.86 642.04" stroke="hsl(60, 100%, 65%)" stroke-width="1.5"></path><path d="M1434.84 645.66L1434.84 645.66" stroke="hsl(60, 100%, 65%)" stroke-width="1.5"></path><path d="M1434.84 645.66L1583.81 666.54" stroke="hsl(60, 100%, 65%)" stroke-width="1.5"></path><path d="M1434.84 645.66L1272.86 642.04" stroke="hsl(60, 100%, 65%)" stroke-width="1.5"></path><path d="M1609.38 355.59L1609.38 355.59" stroke="hsl(60, 100%, 65%)" stroke-width="1.5"></path><path d="M1609.38 355.59L1586.03 259.32" stroke="hsl(60, 100%, 65%)" stroke-width="1.5"></path><path d="M1609.38 355.59L1590.95 493.53" stroke="hsl(60, 100%, 65%)" stroke-width="1.5"></path><path d="M-83.23 545.14L-83.23 545.14" stroke="hsl(60, 100%, 65%)" stroke-width="1.5"></path><path d="M-83.23 545.14L-81.71 707.71" stroke="hsl(60, 100%, 65%)" stroke-width="1.5"></path><path d="M-83.23 545.14L107.2 544.8" stroke="hsl(60, 100%, 65%)" stroke-width="1.5"></path><path d="M-83.23 545.14L87.35 711.38" stroke="hsl(60, 100%, 65%)" stroke-width="1.5"></path><path d="M-83.23 545.14L255.52 549.47" stroke="hsl(60, 100%, 65%)" stroke-width="1.5"></path><path d="M-83.23 545.14L243.37 676.79" stroke="hsl(60, 100%, 65%)" stroke-width="1.5"></path><path d="M-81.71 707.71L-81.71 707.71" stroke="hsl(60, 100%, 65%)" stroke-width="1.5"></path><path d="M107.2 544.8L107.2 544.8" stroke="hsl(60, 100%, 65%)" stroke-width="1.5"></path><path d="M107.2 544.8L255.52 549.47" stroke="hsl(60, 100%, 65%)" stroke-width="1.5"></path><path d="M255.52 549.47L255.52 549.47" stroke="hsl(60, 100%, 65%)" stroke-width="1.5"></path><path d="M255.52 549.47L377.47 519.83" stroke="hsl(60, 100%, 65%)" stroke-width="1.5"></path><path d="M255.52 549.47L243.37 676.79" stroke="hsl(60, 100%, 65%)" stroke-width="1.5"></path><path d="M255.52 549.47L355.46 712.11" stroke="hsl(60, 100%, 65%)" stroke-width="1.5"></path><path d="M243.37 676.79L243.37 676.79" stroke="hsl(60, 100%, 65%)" stroke-width="1.5"></path><path d="M243.37 676.79L355.46 712.11" stroke="hsl(60, 100%, 65%)" stroke-width="1.5"></path><path d="M377.47 519.83L377.47 519.83" stroke="hsl(60, 100%, 65%)" stroke-width="1.5"></path><path d="M377.47 519.83L520.04 555.9" stroke="hsl(60, 100%, 65%)" stroke-width="1.5"></path><path d="M355.46 712.11L355.46 712.11" stroke="hsl(60, 100%, 65%)" stroke-width="1.5"></path><path d="M355.46 712.11L542.43 669.38" stroke="hsl(60, 100%, 65%)" stroke-width="1.5"></path><path d="M355.46 712.11L377.47 519.83" stroke="hsl(60, 100%, 65%)" stroke-width="1.5"></path><path d="M520.04 555.9L520.04 555.9" stroke="hsl(60, 100%, 65%)" stroke-width="1.5"></path><path d="M520.04 555.9L542.43 669.38" stroke="hsl(60, 100%, 65%)" stroke-width="1.5"></path><path d="M520.04 555.9L688.5 513.13" stroke="hsl(60, 100%, 65%)" stroke-width="1.5"></path><path d="M542.43 669.38L542.43 669.38" stroke="hsl(60, 100%, 65%)" stroke-width="1.5"></path><path d="M542.43 669.38L703.48 654.13" stroke="hsl(60, 100%, 65%)" stroke-width="1.5"></path><path d="M542.43 669.38L688.5 513.13" stroke="hsl(60, 100%, 65%)" stroke-width="1.5"></path><path d="M688.5 513.13L688.5 513.13" stroke="hsl(60, 100%, 65%)" stroke-width="1.5"></path><path d="M688.5 513.13L790.37 518.91" stroke="hsl(60, 100%, 65%)" stroke-width="1.5"></path><path d="M688.5 513.13L703.48 654.13" stroke="hsl(60, 100%, 65%)" stroke-width="1.5"></path><path d="M703.48 654.13L703.48 654.13" stroke="hsl(60, 100%, 65%)" stroke-width="1.5"></path><path d="M703.48 654.13L790.37 518.91" stroke="hsl(60, 100%, 65%)" stroke-width="1.5"></path><path d="M703.48 654.13L520.04 555.9" stroke="hsl(60, 100%, 65%)" stroke-width="1.5"></path><path d="M811.19 376.2L811.19 376.2" stroke="hsl(60, 100%, 65%)" stroke-width="1.5"></path><path d="M811.19 376.2L790.37 518.91" stroke="hsl(60, 100%, 65%)" stroke-width="1.5"></path><path d="M811.19 376.2L940.76 494.35" stroke="hsl(60, 100%, 65%)" stroke-width="1.5"></path><path d="M811.19 376.2L688.5 513.13" stroke="hsl(60, 100%, 65%)" stroke-width="1.5"></path><path d="M811.19 376.2L992.11 409.67" stroke="hsl(60, 100%, 65%)" stroke-width="1.5"></path><path d="M811.19 376.2L1100.9 405.29" stroke="hsl(60, 100%, 65%)" stroke-width="1.5"></path><path d="M790.37 518.91L790.37 518.91" stroke="hsl(60, 100%, 65%)" stroke-width="1.5"></path><path d="M790.37 518.91L940.76 494.35" stroke="hsl(60, 100%, 65%)" stroke-width="1.5"></path><path d="M992.11 409.67L992.11 409.67" stroke="hsl(60, 100%, 65%)" stroke-width="1.5"></path><path d="M992.11 409.67L940.76 494.35" stroke="hsl(60, 100%, 65%)" stroke-width="1.5"></path><path d="M992.11 409.67L1100.9 405.29" stroke="hsl(60, 100%, 65%)" stroke-width="1.5"></path><path d="M940.76 494.35L940.76 494.35" stroke="hsl(60, 100%, 65%)" stroke-width="1.5"></path><path d="M1155.22 53.71L1155.22 53.71" stroke="hsl(60, 100%, 65%)" stroke-width="1.5"></path><path d="M1155.22 53.71L1295.06 104.48" stroke="hsl(60, 100%, 65%)" stroke-width="1.5"></path><path d="M1155.22 53.71L1254.29 -87.66" stroke="hsl(60, 100%, 65%)" stroke-width="1.5"></path><path d="M1155.22 53.71L1108.35 225.6" stroke="hsl(60, 100%, 65%)" stroke-width="1.5"></path><path d="M1155.22 53.71L1305.09 250.74" stroke="hsl(60, 100%, 65%)" stroke-width="1.5"></path><path d="M1155.22 53.71L1401.4 -73.14" stroke="hsl(60, 100%, 65%)" stroke-width="1.5"></path><path d="M1155.22 53.71L1257.46 347.81" stroke="hsl(60, 100%, 65%)" stroke-width="1.5"></path><path d="M1108.35 225.6L1108.35 225.6" stroke="hsl(60, 100%, 65%)" stroke-width="1.5"></path><path d="M1108.35 225.6L1100.9 405.29" stroke="hsl(60, 100%, 65%)" stroke-width="1.5"></path><path d="M1100.9 405.29L1100.9 405.29" stroke="hsl(60, 100%, 65%)" stroke-width="1.5"></path><path d="M1146.17 667.66L1146.17 667.66" stroke="hsl(60, 100%, 65%)" stroke-width="1.5"></path><path d="M1146.17 667.66L1272.86 642.04" stroke="hsl(60, 100%, 65%)" stroke-width="1.5"></path><path d="M1146.17 667.66L1254.76 536.48" stroke="hsl(60, 100%, 65%)" stroke-width="1.5"></path><path d="M1146.17 667.66L1100.9 405.29" stroke="hsl(60, 100%, 65%)" stroke-width="1.5"></path><path d="M1254.29 -87.66L1254.29 -87.66" stroke="hsl(60, 100%, 65%)" stroke-width="1.5"></path><path d="M1254.29 -87.66L1401.4 -73.14" stroke="hsl(60, 100%, 65%)" stroke-width="1.5"></path><path d="M1254.29 -87.66L1295.06 104.48" stroke="hsl(60, 100%, 65%)" stroke-width="1.5"></path><path d="M1254.29 -87.66L1596.18 -78.56" stroke="hsl(60, 100%, 65%)" stroke-width="1.5"></path><path d="M1254.29 -87.66L1305.09 250.74" stroke="hsl(60, 100%, 65%)" stroke-width="1.5"></path><path d="M1295.06 104.48L1295.06 104.48" stroke="hsl(60, 100%, 65%)" stroke-width="1.5"></path><path d="M1295.06 104.48L1305.09 250.74" stroke="hsl(60, 100%, 65%)" stroke-width="1.5"></path><path d="M1295.06 104.48L1420.53 242.56" stroke="hsl(60, 100%, 65%)" stroke-width="1.5"></path><path d="M1305.09 250.74L1305.09 250.74" stroke="hsl(60, 100%, 65%)" stroke-width="1.5"></path><path d="M1305.09 250.74L1257.46 347.81" stroke="hsl(60, 100%, 65%)" stroke-width="1.5"></path><path d="M1305.09 250.74L1420.53 242.56" stroke="hsl(60, 100%, 65%)" stroke-width="1.5"></path><path d="M1305.09 250.74L1432.21 378.97" stroke="hsl(60, 100%, 65%)" stroke-width="1.5"></path><path d="M1257.46 347.81L1257.46 347.81" stroke="hsl(60, 100%, 65%)" stroke-width="1.5"></path><path d="M1257.46 347.81L1100.9 405.29" stroke="hsl(60, 100%, 65%)" stroke-width="1.5"></path><path d="M1257.46 347.81L1432.21 378.97" stroke="hsl(60, 100%, 65%)" stroke-width="1.5"></path><path d="M1257.46 347.81L1254.76 536.48" stroke="hsl(60, 100%, 65%)" stroke-width="1.5"></path><path d="M1257.46 347.81L1108.35 225.6" stroke="hsl(60, 100%, 65%)" stroke-width="1.5"></path><path d="M1257.46 347.81L1420.53 242.56" stroke="hsl(60, 100%, 65%)" stroke-width="1.5"></path><path d="M1272.86 642.04L1272.86 642.04" stroke="hsl(60, 100%, 65%)" stroke-width="1.5"></path><path d="M1401.4 -73.14L1401.4 -73.14" stroke="hsl(60, 100%, 65%)" stroke-width="1.5"></path><path d="M1401.4 -73.14L1596.18 -78.56" stroke="hsl(60, 100%, 65%)" stroke-width="1.5"></path><path d="M1401.4 -73.14L1295.06 104.48" stroke="hsl(60, 100%, 65%)" stroke-width="1.5"></path><path d="M1401.4 -73.14L1576.04 102.53" stroke="hsl(60, 100%, 65%)" stroke-width="1.5"></path><path d="M1420.53 242.56L1420.53 242.56" stroke="hsl(60, 100%, 65%)" stroke-width="1.5"></path><path d="M1420.53 242.56L1432.21 378.97" stroke="hsl(60, 100%, 65%)" stroke-width="1.5"></path><path d="M1420.53 242.56L1586.03 259.32" stroke="hsl(60, 100%, 65%)" stroke-width="1.5"></path><path d="M1432.21 378.97L1432.21 378.97" stroke="hsl(60, 100%, 65%)" stroke-width="1.5"></path><path d="M1432.21 378.97L1391.38 546.4" stroke="hsl(60, 100%, 65%)" stroke-width="1.5"></path><path d="M1596.18 -78.56L1596.18 -78.56" stroke="hsl(60, 100%, 65%)" stroke-width="1.5"></path><path d="M1596.18 -78.56L1576.04 102.53" stroke="hsl(60, 100%, 65%)" stroke-width="1.5"></path><path d="M1596.18 -78.56L1586.03 259.32" stroke="hsl(60, 100%, 65%)" stroke-width="1.5"></path><path d="M1576.04 102.53L1576.04 102.53" stroke="hsl(60, 100%, 65%)" stroke-width="1.5"></path><path d="M1576.04 102.53L1586.03 259.32" stroke="hsl(60, 100%, 65%)" stroke-width="1.5"></path><path d="M1576.04 102.53L1420.53 242.56" stroke="hsl(60, 100%, 65%)" stroke-width="1.5"></path><path d="M1576.04 102.53L1609.38 355.59" stroke="hsl(60, 100%, 65%)" stroke-width="1.5"></path><path d="M1576.04 102.53L1295.06 104.48" stroke="hsl(60, 100%, 65%)" stroke-width="1.5"></path><path d="M1586.03 259.32L1586.03 259.32" stroke="hsl(60, 100%, 65%)" stroke-width="1.5"></path><path d="M1590.95 493.53L1590.95 493.53" stroke="hsl(60, 100%, 65%)" stroke-width="1.5"></path><path d="M1590.95 493.53L1583.81 666.54" stroke="hsl(60, 100%, 65%)" stroke-width="1.5"></path><path d="M1590.95 493.53L1432.21 378.97" stroke="hsl(60, 100%, 65%)" stroke-width="1.5"></path><path d="M1590.95 493.53L1391.38 546.4" stroke="hsl(60, 100%, 65%)" stroke-width="1.5"></path><path d="M1590.95 493.53L1434.84 645.66" stroke="hsl(60, 100%, 65%)" stroke-width="1.5"></path><path d="M1583.81 666.54L1583.81 666.54" stroke="hsl(60, 100%, 65%)" stroke-width="1.5"></path><path d="M1583.81 666.54L1391.38 546.4" stroke="hsl(60, 100%, 65%)" stroke-width="1.5"></path><path d="M1583.81 666.54L1272.86 642.04" stroke="hsl(60, 100%, 65%)" stroke-width="1.5"></path><path d="M1583.81 666.54L1609.38 355.59" stroke="hsl(60, 100%, 65%)" stroke-width="1.5"></path><circle r="25" cx="87.35" cy="711.38" fill="url(&quot;#SvgjsRadialGradient2294&quot;)"></circle><circle r="25" cx="859.21" cy="677.23" fill="url(&quot;#SvgjsRadialGradient2294&quot;)"></circle><circle r="25" cx="960.86" cy="695.93" fill="url(&quot;#SvgjsRadialGradient2294&quot;)"></circle><circle r="25" cx="1091.36" cy="521.79" fill="url(&quot;#SvgjsRadialGradient2294&quot;)"></circle><circle r="25" cx="1254.76" cy="536.48" fill="url(&quot;#SvgjsRadialGradient2294&quot;)"></circle><circle r="25" cx="1391.38" cy="546.4" fill="url(&quot;#SvgjsRadialGradient2294&quot;)"></circle><circle r="25" cx="1434.84" cy="645.66" fill="url(&quot;#SvgjsRadialGradient2294&quot;)"></circle><circle r="25" cx="1609.38" cy="355.59" fill="url(&quot;#SvgjsRadialGradient2294&quot;)"></circle><circle r="5" cx="-83.23" cy="545.14" fill="#ffff80"></circle><circle r="5" cx="-81.71" cy="707.71" fill="#ffff80"></circle><circle r="5" cx="107.2" cy="544.8" fill="#ffff80"></circle><circle r="5" cx="255.52" cy="549.47" fill="#ffff80"></circle><circle r="5" cx="243.37" cy="676.79" fill="#ffff80"></circle><circle r="5" cx="377.47" cy="519.83" fill="#ffff80"></circle><circle r="5" cx="355.46" cy="712.11" fill="#ffff80"></circle><circle r="5" cx="520.04" cy="555.9" fill="#ffff80"></circle><circle r="5" cx="542.43" cy="669.38" fill="#ffff80"></circle><circle r="5" cx="688.5" cy="513.13" fill="#ffff80"></circle><circle r="5" cx="703.48" cy="654.13" fill="#ffff80"></circle><circle r="5" cx="811.19" cy="376.2" fill="#ffff80"></circle><circle r="5" cx="790.37" cy="518.91" fill="#ffff80"></circle><circle r="5" cx="992.11" cy="409.67" fill="#ffff80"></circle><circle r="5" cx="940.76" cy="494.35" fill="#ffff80"></circle><circle r="5" cx="1155.22" cy="53.71" fill="#ffff80"></circle><circle r="5" cx="1108.35" cy="225.6" fill="#ffff80"></circle><circle r="5" cx="1100.9" cy="405.29" fill="#ffff80"></circle><circle r="5" cx="1146.17" cy="667.66" fill="#ffff80"></circle><circle r="5" cx="1254.29" cy="-87.66" fill="#ffff80"></circle><circle r="5" cx="1295.06" cy="104.48" fill="#ffff80"></circle><circle r="5" cx="1305.09" cy="250.74" fill="#ffff80"></circle><circle r="5" cx="1257.46" cy="347.81" fill="#ffff80"></circle><circle r="5" cx="1272.86" cy="642.04" fill="#ffff80"></circle><circle r="5" cx="1401.4" cy="-73.14" fill="#ffff80"></circle><circle r="5" cx="1420.53" cy="242.56" fill="#ffff80"></circle><circle r="5" cx="1432.21" cy="378.97" fill="#ffff80"></circle><circle r="5" cx="1596.18" cy="-78.56" fill="#ffff80"></circle><circle r="5" cx="1576.04" cy="102.53" fill="#ffff80"></circle><circle r="5" cx="1586.03" cy="259.32" fill="#ffff80"></circle><circle r="5" cx="1590.95" cy="493.53" fill="#ffff80"></circle><circle r="5" cx="1583.81" cy="666.54" fill="#ffff80"></circle></g><defs><mask id="SvgjsMask2293"><rect width="1440" height="560" fill="#ffffff"></rect></mask><radialGradient id="SvgjsRadialGradient2294"><stop stop-color="#ffffff" offset="0.1"></stop><stop stop-color="rgba(255, 255, 0, 1)" offset="0.2"></stop><stop stop-color="rgba(255, 255, 0, 0)" offset="1"></stop></radialGradient></defs></svg>